<svg width="20" height="17" viewBox="0 0 20 17" fill="none" xmlns="http://www.w3.org/2000/svg">
<path d="M13.5116 11.7772L9.60479 12.0288C9.27849 12.0288 9.02844 11.5634 9.02844 11.158C9.02844 10.7526 9.28349 10.442 9.59779 10.442L13.5137 10.5929C13.8259 10.5929 14.08 10.9141 14.08 11.3099C14.081 11.7772 13.7255 11.7772 13.5116 11.7772ZM16.6936 8.99931L9.6008 9.25281C9.44514 9.25281 9.29957 9.14834 9.18508 8.96256C9.08486 8.78652 9.03074 8.58957 9.02747 8.38878C9.02747 7.99498 9.28349 7.67279 9.59677 7.67279L16.6966 7.82469C17.0079 7.82469 17.2619 8.14591 17.2619 8.54165C17.2619 8.99931 16.9054 8.99931 16.6936 8.99931ZM19.4367 6.22045L9.59677 6.47492C9.27445 6.47492 9.02344 6.00761 9.02344 5.60411C9.02344 5.20066 9.27849 4.8891 9.59274 4.8891L19.4327 5.04003C19.745 5.04003 20 5.36124 20 5.75601C20.005 6.22142 19.6496 6.22142 19.4367 6.22142V6.22045Z" fill="white"/>
<path d="M12.3088 16.8299C12.2216 16.8301 12.135 16.8161 12.0527 16.7882C9.07468 15.7975 6.71007 14.7322 4.82341 13.5305C1.63345 11.4985 0.0118722 9.17636 0.00383955 6.62004C-0.0805028 4.324 1.22981 2.15083 3.42974 0.945231C6.0735 -0.506128 9.39899 -0.27391 12.3248 1.5577C12.4112 1.61171 12.4856 1.68156 12.5438 1.76328C12.6021 1.84499 12.6431 1.93697 12.6646 2.03396C12.686 2.13095 12.6873 2.23105 12.6686 2.32855C12.6498 2.42605 12.6113 2.51904 12.5553 2.6022C12.4992 2.68536 12.4267 2.75708 12.3419 2.81324C12.2572 2.86941 12.1617 2.90893 12.0611 2.92955C11.9604 2.95017 11.8565 2.95149 11.7554 2.93342C11.6542 2.91535 11.5577 2.87826 11.4714 2.82426C9.04554 1.30614 6.3285 1.09424 4.20489 2.25823C2.51302 3.18613 1.50293 4.83873 1.57421 6.58036V6.61038C1.57421 9.94655 5.37465 12.9741 12.5648 15.3659C12.7405 15.4239 12.8891 15.54 12.9841 15.6937C13.0791 15.8474 13.1144 16.0286 13.0837 16.205C13.0529 16.3815 12.9581 16.5416 12.8162 16.657C12.6743 16.7723 12.4944 16.8353 12.3088 16.8347V16.8299Z" fill="white"/>
</svg>
